<mxfile host="app.diagrams.net" modified="2023-11-02T14:21:36.016Z" agent="Mozilla/5.0 (Macintosh; Intel Mac OS X 10_15_7) AppleWebKit/537.36 (KHTML, like Gecko) Chrome/118.0.0.0 Safari/537.36 Edg/118.0.2088.76" etag="xAAbY1elj665JHD_LJix" version="22.0.8" type="github">
  <diagram name="第 1 页" id="oirfP8GlLZbANJKovkfx">
    <mxGraphModel dx="1434" dy="796" grid="1" gridSize="10" guides="1" tooltips="1" connect="1" arrows="1" fold="1" page="1" pageScale="1" pageWidth="1169" pageHeight="1654" math="1" shadow="0">
      <root>
        <mxCell id="0" />
        <mxCell id="1" parent="0" />
        <mxCell id="uFLqNF3YbA82gDsRBkXz-91" value="" style="rounded=0;whiteSpace=wrap;html=1;dashed=1;fillColor=#f5f5f5;strokeColor=#666666;gradientColor=#b3b3b3;" vertex="1" parent="1">
          <mxGeometry x="500" y="290" width="290" height="120" as="geometry" />
        </mxCell>
        <mxCell id="uFLqNF3YbA82gDsRBkXz-1" value="" style="endArrow=none;html=1;rounded=0;fontSize=14;fontFamily=Times New Roman;" edge="1" parent="1">
          <mxGeometry width="50" height="50" relative="1" as="geometry">
            <mxPoint x="50" y="520" as="sourcePoint" />
            <mxPoint x="50" y="80" as="targetPoint" />
          </mxGeometry>
        </mxCell>
        <mxCell id="uFLqNF3YbA82gDsRBkXz-2" value="$$\varphi$$" style="text;html=1;strokeColor=none;fillColor=none;align=center;verticalAlign=middle;whiteSpace=wrap;rounded=0;fontFamily=Times New Roman;fontSize=14;" vertex="1" parent="1">
          <mxGeometry x="10" y="60" width="60" height="30" as="geometry" />
        </mxCell>
        <mxCell id="uFLqNF3YbA82gDsRBkXz-3" value="$$u_2$$" style="text;html=1;strokeColor=none;fillColor=none;align=center;verticalAlign=middle;whiteSpace=wrap;rounded=0;fontFamily=Times New Roman;fontSize=14;" vertex="1" parent="1">
          <mxGeometry x="10" y="110" width="60" height="30" as="geometry" />
        </mxCell>
        <mxCell id="uFLqNF3YbA82gDsRBkXz-4" value="$$u_1$$" style="text;html=1;strokeColor=none;fillColor=none;align=center;verticalAlign=middle;whiteSpace=wrap;rounded=0;fontFamily=Times New Roman;fontSize=14;" vertex="1" parent="1">
          <mxGeometry x="10" y="200" width="60" height="30" as="geometry" />
        </mxCell>
        <mxCell id="uFLqNF3YbA82gDsRBkXz-5" value="$$u_0$$" style="text;html=1;strokeColor=none;fillColor=none;align=center;verticalAlign=middle;whiteSpace=wrap;rounded=0;fontFamily=Times New Roman;fontSize=14;" vertex="1" parent="1">
          <mxGeometry x="10" y="290" width="60" height="30" as="geometry" />
        </mxCell>
        <mxCell id="uFLqNF3YbA82gDsRBkXz-6" style="edgeStyle=none;shape=connector;rounded=0;orthogonalLoop=1;jettySize=auto;html=1;exitX=0.5;exitY=0;exitDx=0;exitDy=0;labelBackgroundColor=default;strokeColor=default;align=center;verticalAlign=middle;fontFamily=Times New Roman;fontSize=14;fontColor=default;endArrow=classic;" edge="1" parent="1">
          <mxGeometry relative="1" as="geometry">
            <mxPoint x="341.5" y="120" as="sourcePoint" />
            <mxPoint x="341.5" y="120" as="targetPoint" />
          </mxGeometry>
        </mxCell>
        <mxCell id="uFLqNF3YbA82gDsRBkXz-7" style="edgeStyle=none;shape=connector;rounded=0;orthogonalLoop=1;jettySize=auto;html=1;exitX=0.5;exitY=1;exitDx=0;exitDy=0;entryX=0.5;entryY=0;entryDx=0;entryDy=0;labelBackgroundColor=default;strokeColor=default;align=center;verticalAlign=middle;fontFamily=Times New Roman;fontSize=14;fontColor=default;endArrow=classic;" edge="1" parent="1" source="uFLqNF3YbA82gDsRBkXz-8">
          <mxGeometry relative="1" as="geometry">
            <mxPoint x="425" y="200" as="targetPoint" />
          </mxGeometry>
        </mxCell>
        <mxCell id="uFLqNF3YbA82gDsRBkXz-8" value="$$v_{b_{1}}$$" style="ellipse;whiteSpace=wrap;html=1;aspect=fixed;fontFamily=Times New Roman;fontSize=14;fontColor=default;" vertex="1" parent="1">
          <mxGeometry x="410" y="110" width="30" height="30" as="geometry" />
        </mxCell>
        <mxCell id="uFLqNF3YbA82gDsRBkXz-9" style="edgeStyle=none;shape=connector;rounded=0;orthogonalLoop=1;jettySize=auto;html=1;exitX=0.5;exitY=1;exitDx=0;exitDy=0;entryX=0.5;entryY=0;entryDx=0;entryDy=0;labelBackgroundColor=default;strokeColor=default;align=center;verticalAlign=middle;fontFamily=Helvetica;fontSize=11;fontColor=default;endArrow=classic;" edge="1" parent="1" source="uFLqNF3YbA82gDsRBkXz-14" target="uFLqNF3YbA82gDsRBkXz-21">
          <mxGeometry relative="1" as="geometry" />
        </mxCell>
        <mxCell id="uFLqNF3YbA82gDsRBkXz-10" style="edgeStyle=none;shape=connector;rounded=0;orthogonalLoop=1;jettySize=auto;html=1;exitX=0.5;exitY=1;exitDx=0;exitDy=0;entryX=0.5;entryY=0;entryDx=0;entryDy=0;labelBackgroundColor=default;strokeColor=default;align=center;verticalAlign=middle;fontFamily=Helvetica;fontSize=11;fontColor=default;endArrow=classic;" edge="1" parent="1" source="uFLqNF3YbA82gDsRBkXz-14" target="uFLqNF3YbA82gDsRBkXz-22">
          <mxGeometry relative="1" as="geometry" />
        </mxCell>
        <mxCell id="uFLqNF3YbA82gDsRBkXz-11" style="edgeStyle=none;shape=connector;rounded=0;orthogonalLoop=1;jettySize=auto;html=1;exitX=0.5;exitY=1;exitDx=0;exitDy=0;entryX=0.5;entryY=0;entryDx=0;entryDy=0;labelBackgroundColor=default;strokeColor=default;align=center;verticalAlign=middle;fontFamily=Helvetica;fontSize=11;fontColor=default;endArrow=classic;" edge="1" parent="1" source="uFLqNF3YbA82gDsRBkXz-14" target="uFLqNF3YbA82gDsRBkXz-47">
          <mxGeometry relative="1" as="geometry" />
        </mxCell>
        <mxCell id="uFLqNF3YbA82gDsRBkXz-12" style="edgeStyle=none;shape=connector;rounded=0;orthogonalLoop=1;jettySize=auto;html=1;exitX=0.5;exitY=1;exitDx=0;exitDy=0;entryX=0.5;entryY=0;entryDx=0;entryDy=0;labelBackgroundColor=default;strokeColor=default;align=center;verticalAlign=middle;fontFamily=Helvetica;fontSize=11;fontColor=default;endArrow=classic;" edge="1" parent="1" source="uFLqNF3YbA82gDsRBkXz-14" target="uFLqNF3YbA82gDsRBkXz-51">
          <mxGeometry relative="1" as="geometry" />
        </mxCell>
        <mxCell id="uFLqNF3YbA82gDsRBkXz-13" style="edgeStyle=none;shape=connector;rounded=0;orthogonalLoop=1;jettySize=auto;html=1;exitX=0.5;exitY=1;exitDx=0;exitDy=0;entryX=0.5;entryY=0;entryDx=0;entryDy=0;labelBackgroundColor=default;strokeColor=default;align=center;verticalAlign=middle;fontFamily=Helvetica;fontSize=11;fontColor=default;endArrow=classic;" edge="1" parent="1" source="uFLqNF3YbA82gDsRBkXz-14" target="uFLqNF3YbA82gDsRBkXz-55">
          <mxGeometry relative="1" as="geometry" />
        </mxCell>
        <mxCell id="uFLqNF3YbA82gDsRBkXz-14" value="$$v_{a_{1}}$$" style="ellipse;whiteSpace=wrap;html=1;aspect=fixed;fontFamily=Times New Roman;fontSize=14;fontColor=default;" vertex="1" parent="1">
          <mxGeometry x="410" y="200" width="30" height="30" as="geometry" />
        </mxCell>
        <mxCell id="uFLqNF3YbA82gDsRBkXz-15" value="$$u_3$$" style="text;html=1;strokeColor=none;fillColor=none;align=center;verticalAlign=middle;whiteSpace=wrap;rounded=0;fontFamily=Times New Roman;fontSize=14;" vertex="1" parent="1">
          <mxGeometry x="10" y="380" width="60" height="30" as="geometry" />
        </mxCell>
        <mxCell id="uFLqNF3YbA82gDsRBkXz-16" value="" style="verticalLabelPosition=bottom;verticalAlign=top;html=1;shape=mxgraph.basic.x;fontFamily=Times New Roman;fontSize=14;fontColor=default;fillColor=#000000;" vertex="1" parent="1">
          <mxGeometry x="132.26" y="420" width="20" height="30" as="geometry" />
        </mxCell>
        <mxCell id="uFLqNF3YbA82gDsRBkXz-17" value="" style="verticalLabelPosition=bottom;verticalAlign=top;html=1;shape=mxgraph.basic.x;fontFamily=Times New Roman;fontSize=14;fontColor=default;fillColor=#000000;" vertex="1" parent="1">
          <mxGeometry x="179.52" y="420" width="20" height="30" as="geometry" />
        </mxCell>
        <mxCell id="uFLqNF3YbA82gDsRBkXz-18" value="275" style="rounded=0;whiteSpace=wrap;html=1;fontSize=14;fontFamily=Times New Roman;" vertex="1" parent="1">
          <mxGeometry x="75" y="460" width="40" height="30" as="geometry" />
        </mxCell>
        <mxCell id="uFLqNF3YbA82gDsRBkXz-19" value="225" style="rounded=0;whiteSpace=wrap;html=1;fontSize=14;fontFamily=Times New Roman;" vertex="1" parent="1">
          <mxGeometry x="122.26" y="460" width="40" height="30" as="geometry" />
        </mxCell>
        <mxCell id="uFLqNF3YbA82gDsRBkXz-20" value="210" style="rounded=0;whiteSpace=wrap;html=1;fontSize=14;fontFamily=Times New Roman;" vertex="1" parent="1">
          <mxGeometry x="169.52" y="460" width="40" height="30" as="geometry" />
        </mxCell>
        <mxCell id="uFLqNF3YbA82gDsRBkXz-21" value="$$v_{a_{0}}$$" style="ellipse;whiteSpace=wrap;html=1;aspect=fixed;fontFamily=Times New Roman;fontSize=14;fontColor=default;" vertex="1" parent="1">
          <mxGeometry x="128.26027397260273" y="290" width="28" height="28" as="geometry" />
        </mxCell>
        <mxCell id="uFLqNF3YbA82gDsRBkXz-22" value="$$v_{a_{2}}$$" style="ellipse;whiteSpace=wrap;html=1;aspect=fixed;fontFamily=Times New Roman;fontSize=14;fontColor=default;" vertex="1" parent="1">
          <mxGeometry x="270.04109589041093" y="290" width="28" height="28" as="geometry" />
        </mxCell>
        <mxCell id="uFLqNF3YbA82gDsRBkXz-23" value="$$v_{c_{3}}$$" style="ellipse;whiteSpace=wrap;html=1;aspect=fixed;fontFamily=Times New Roman;fontSize=14;fontColor=default;" vertex="1" parent="1">
          <mxGeometry x="81" y="380" width="28" height="28" as="geometry" />
        </mxCell>
        <mxCell id="uFLqNF3YbA82gDsRBkXz-24" style="edgeStyle=none;shape=connector;rounded=0;orthogonalLoop=1;jettySize=auto;html=1;exitX=0.5;exitY=1;exitDx=0;exitDy=0;entryX=0.5;entryY=0;entryDx=0;entryDy=0;labelBackgroundColor=default;strokeColor=default;align=center;verticalAlign=middle;fontFamily=Times New Roman;fontSize=14;fontColor=default;endArrow=classic;" edge="1" parent="1" source="uFLqNF3YbA82gDsRBkXz-21" target="uFLqNF3YbA82gDsRBkXz-23">
          <mxGeometry relative="1" as="geometry" />
        </mxCell>
        <mxCell id="uFLqNF3YbA82gDsRBkXz-25" value="$$v_{c_{2}}$$" style="ellipse;whiteSpace=wrap;html=1;aspect=fixed;fontFamily=Times New Roman;fontSize=14;fontColor=default;" vertex="1" parent="1">
          <mxGeometry x="128.26027397260273" y="380" width="28" height="28" as="geometry" />
        </mxCell>
        <mxCell id="uFLqNF3YbA82gDsRBkXz-26" style="edgeStyle=none;shape=connector;rounded=0;orthogonalLoop=1;jettySize=auto;html=1;exitX=0.5;exitY=1;exitDx=0;exitDy=0;entryX=0.5;entryY=0;entryDx=0;entryDy=0;labelBackgroundColor=default;strokeColor=default;align=center;verticalAlign=middle;fontFamily=Times New Roman;fontSize=14;fontColor=default;endArrow=classic;" edge="1" parent="1" source="uFLqNF3YbA82gDsRBkXz-21" target="uFLqNF3YbA82gDsRBkXz-25">
          <mxGeometry relative="1" as="geometry" />
        </mxCell>
        <mxCell id="uFLqNF3YbA82gDsRBkXz-27" value="$$v_{c_{1}}$$" style="ellipse;whiteSpace=wrap;html=1;aspect=fixed;fontFamily=Times New Roman;fontSize=14;fontColor=default;" vertex="1" parent="1">
          <mxGeometry x="175.52054794520546" y="380" width="28" height="28" as="geometry" />
        </mxCell>
        <mxCell id="uFLqNF3YbA82gDsRBkXz-28" style="edgeStyle=none;shape=connector;rounded=0;orthogonalLoop=1;jettySize=auto;html=1;exitX=0.5;exitY=1;exitDx=0;exitDy=0;entryX=0.5;entryY=0;entryDx=0;entryDy=0;labelBackgroundColor=default;strokeColor=default;align=center;verticalAlign=middle;fontFamily=Times New Roman;fontSize=14;fontColor=default;endArrow=classic;" edge="1" parent="1" source="uFLqNF3YbA82gDsRBkXz-21" target="uFLqNF3YbA82gDsRBkXz-27">
          <mxGeometry relative="1" as="geometry" />
        </mxCell>
        <mxCell id="uFLqNF3YbA82gDsRBkXz-29" value="$$v_{c_{3}}$$" style="ellipse;whiteSpace=wrap;html=1;aspect=fixed;fontFamily=Times New Roman;fontSize=14;fontColor=default;" vertex="1" parent="1">
          <mxGeometry x="222.78082191780823" y="380" width="28" height="28" as="geometry" />
        </mxCell>
        <mxCell id="uFLqNF3YbA82gDsRBkXz-30" style="edgeStyle=none;shape=connector;rounded=0;orthogonalLoop=1;jettySize=auto;html=1;exitX=0.5;exitY=1;exitDx=0;exitDy=0;entryX=0.5;entryY=0;entryDx=0;entryDy=0;labelBackgroundColor=default;strokeColor=default;align=center;verticalAlign=middle;fontFamily=Times New Roman;fontSize=14;fontColor=default;endArrow=classic;" edge="1" parent="1" source="uFLqNF3YbA82gDsRBkXz-22" target="uFLqNF3YbA82gDsRBkXz-29">
          <mxGeometry relative="1" as="geometry" />
        </mxCell>
        <mxCell id="uFLqNF3YbA82gDsRBkXz-31" value="$$v_{c_{2}}$$" style="ellipse;whiteSpace=wrap;html=1;aspect=fixed;fontFamily=Times New Roman;fontSize=14;fontColor=default;" vertex="1" parent="1">
          <mxGeometry x="270.04109589041093" y="380" width="28" height="28" as="geometry" />
        </mxCell>
        <mxCell id="uFLqNF3YbA82gDsRBkXz-32" style="edgeStyle=none;shape=connector;rounded=0;orthogonalLoop=1;jettySize=auto;html=1;exitX=0.5;exitY=1;exitDx=0;exitDy=0;entryX=0.5;entryY=0;entryDx=0;entryDy=0;labelBackgroundColor=default;strokeColor=default;align=center;verticalAlign=middle;fontFamily=Times New Roman;fontSize=14;fontColor=default;endArrow=classic;" edge="1" parent="1" source="uFLqNF3YbA82gDsRBkXz-22" target="uFLqNF3YbA82gDsRBkXz-31">
          <mxGeometry relative="1" as="geometry" />
        </mxCell>
        <mxCell id="uFLqNF3YbA82gDsRBkXz-33" value="$$v_{c_{1}}$$" style="ellipse;whiteSpace=wrap;html=1;aspect=fixed;fontFamily=Times New Roman;fontSize=14;fontColor=default;" vertex="1" parent="1">
          <mxGeometry x="317.3013698630137" y="380" width="28" height="28" as="geometry" />
        </mxCell>
        <mxCell id="uFLqNF3YbA82gDsRBkXz-34" style="edgeStyle=none;shape=connector;rounded=0;orthogonalLoop=1;jettySize=auto;html=1;exitX=0.5;exitY=1;exitDx=0;exitDy=0;entryX=0.5;entryY=0;entryDx=0;entryDy=0;labelBackgroundColor=default;strokeColor=default;align=center;verticalAlign=middle;fontFamily=Times New Roman;fontSize=14;fontColor=default;endArrow=classic;" edge="1" parent="1" source="uFLqNF3YbA82gDsRBkXz-22" target="uFLqNF3YbA82gDsRBkXz-33">
          <mxGeometry relative="1" as="geometry" />
        </mxCell>
        <mxCell id="uFLqNF3YbA82gDsRBkXz-35" value="$$v_{c_{3}}$$" style="ellipse;whiteSpace=wrap;html=1;aspect=fixed;fontFamily=Times New Roman;fontSize=14;fontColor=default;" vertex="1" parent="1">
          <mxGeometry x="364.56164383561645" y="380" width="28" height="28" as="geometry" />
        </mxCell>
        <mxCell id="uFLqNF3YbA82gDsRBkXz-36" value="$$v_{c_{2}}$$" style="ellipse;whiteSpace=wrap;html=1;aspect=fixed;fontFamily=Times New Roman;fontSize=14;fontColor=default;" vertex="1" parent="1">
          <mxGeometry x="411.82191780821915" y="380" width="28" height="28" as="geometry" />
        </mxCell>
        <mxCell id="uFLqNF3YbA82gDsRBkXz-37" value="$$v_{c_{1}}$$" style="ellipse;whiteSpace=wrap;html=1;aspect=fixed;fontFamily=Times New Roman;fontSize=14;fontColor=default;" vertex="1" parent="1">
          <mxGeometry x="459.0821917808219" y="380" width="28" height="28" as="geometry" />
        </mxCell>
        <mxCell id="uFLqNF3YbA82gDsRBkXz-38" value="$$v_{c_{3}}$$" style="ellipse;whiteSpace=wrap;html=1;aspect=fixed;fontFamily=Times New Roman;fontSize=14;fontColor=default;" vertex="1" parent="1">
          <mxGeometry x="506.3424657534247" y="380" width="28" height="28" as="geometry" />
        </mxCell>
        <mxCell id="uFLqNF3YbA82gDsRBkXz-39" value="$$v_{c_{2}}$$" style="ellipse;whiteSpace=wrap;html=1;aspect=fixed;fontFamily=Times New Roman;fontSize=14;fontColor=default;" vertex="1" parent="1">
          <mxGeometry x="553.6027397260274" y="380" width="28" height="28" as="geometry" />
        </mxCell>
        <mxCell id="uFLqNF3YbA82gDsRBkXz-40" value="$$v_{c_{1}}$$" style="ellipse;whiteSpace=wrap;html=1;aspect=fixed;fontFamily=Times New Roman;fontSize=14;fontColor=default;" vertex="1" parent="1">
          <mxGeometry x="600.8630136986301" y="380" width="28" height="28" as="geometry" />
        </mxCell>
        <mxCell id="uFLqNF3YbA82gDsRBkXz-41" value="$$v_{c_{3}}$$" style="ellipse;whiteSpace=wrap;html=1;aspect=fixed;fontFamily=Times New Roman;fontSize=14;fontColor=default;" vertex="1" parent="1">
          <mxGeometry x="648.1232876712329" y="380" width="28" height="28" as="geometry" />
        </mxCell>
        <mxCell id="uFLqNF3YbA82gDsRBkXz-42" value="$$v_{c_{2}}$$" style="ellipse;whiteSpace=wrap;html=1;aspect=fixed;fontFamily=Times New Roman;fontSize=14;fontColor=default;" vertex="1" parent="1">
          <mxGeometry x="695.3835616438356" y="380" width="28" height="28" as="geometry" />
        </mxCell>
        <mxCell id="uFLqNF3YbA82gDsRBkXz-43" value="$$v_{c_{1}}$$" style="ellipse;whiteSpace=wrap;html=1;aspect=fixed;fontFamily=Times New Roman;fontSize=14;fontColor=default;" vertex="1" parent="1">
          <mxGeometry x="742.6438356164383" y="380" width="28" height="28" as="geometry" />
        </mxCell>
        <mxCell id="uFLqNF3YbA82gDsRBkXz-44" style="edgeStyle=none;shape=connector;rounded=0;orthogonalLoop=1;jettySize=auto;html=1;exitX=0.5;exitY=1;exitDx=0;exitDy=0;entryX=0.5;entryY=0;entryDx=0;entryDy=0;labelBackgroundColor=default;strokeColor=default;align=center;verticalAlign=middle;fontFamily=Times New Roman;fontSize=14;fontColor=default;endArrow=classic;" edge="1" parent="1" source="uFLqNF3YbA82gDsRBkXz-47" target="uFLqNF3YbA82gDsRBkXz-35">
          <mxGeometry relative="1" as="geometry" />
        </mxCell>
        <mxCell id="uFLqNF3YbA82gDsRBkXz-45" style="edgeStyle=none;shape=connector;rounded=0;orthogonalLoop=1;jettySize=auto;html=1;exitX=0.5;exitY=1;exitDx=0;exitDy=0;entryX=0.5;entryY=0;entryDx=0;entryDy=0;labelBackgroundColor=default;strokeColor=default;align=center;verticalAlign=middle;fontFamily=Times New Roman;fontSize=14;fontColor=default;endArrow=classic;" edge="1" parent="1" source="uFLqNF3YbA82gDsRBkXz-47" target="uFLqNF3YbA82gDsRBkXz-36">
          <mxGeometry relative="1" as="geometry" />
        </mxCell>
        <mxCell id="uFLqNF3YbA82gDsRBkXz-46" style="edgeStyle=none;shape=connector;rounded=0;orthogonalLoop=1;jettySize=auto;html=1;exitX=0.5;exitY=1;exitDx=0;exitDy=0;entryX=0.5;entryY=0;entryDx=0;entryDy=0;labelBackgroundColor=default;strokeColor=default;align=center;verticalAlign=middle;fontFamily=Times New Roman;fontSize=14;fontColor=default;endArrow=classic;" edge="1" parent="1" source="uFLqNF3YbA82gDsRBkXz-47" target="uFLqNF3YbA82gDsRBkXz-37">
          <mxGeometry relative="1" as="geometry" />
        </mxCell>
        <mxCell id="uFLqNF3YbA82gDsRBkXz-47" value="$$v_{a_{3}}$$" style="ellipse;whiteSpace=wrap;html=1;aspect=fixed;fontFamily=Times New Roman;fontSize=14;fontColor=default;" vertex="1" parent="1">
          <mxGeometry x="410" y="290" width="28" height="28" as="geometry" />
        </mxCell>
        <mxCell id="uFLqNF3YbA82gDsRBkXz-48" style="edgeStyle=none;shape=connector;rounded=0;orthogonalLoop=1;jettySize=auto;html=1;exitX=0.5;exitY=1;exitDx=0;exitDy=0;entryX=0.5;entryY=0;entryDx=0;entryDy=0;labelBackgroundColor=default;strokeColor=default;align=center;verticalAlign=middle;fontFamily=Times New Roman;fontSize=14;fontColor=default;endArrow=classic;" edge="1" parent="1" source="uFLqNF3YbA82gDsRBkXz-51" target="uFLqNF3YbA82gDsRBkXz-38">
          <mxGeometry relative="1" as="geometry" />
        </mxCell>
        <mxCell id="uFLqNF3YbA82gDsRBkXz-49" style="edgeStyle=none;shape=connector;rounded=0;orthogonalLoop=1;jettySize=auto;html=1;exitX=0.5;exitY=1;exitDx=0;exitDy=0;entryX=0.5;entryY=0;entryDx=0;entryDy=0;labelBackgroundColor=default;strokeColor=default;align=center;verticalAlign=middle;fontFamily=Times New Roman;fontSize=14;fontColor=default;endArrow=classic;" edge="1" parent="1" source="uFLqNF3YbA82gDsRBkXz-51" target="uFLqNF3YbA82gDsRBkXz-39">
          <mxGeometry relative="1" as="geometry" />
        </mxCell>
        <mxCell id="uFLqNF3YbA82gDsRBkXz-50" style="edgeStyle=none;shape=connector;rounded=0;orthogonalLoop=1;jettySize=auto;html=1;exitX=0.5;exitY=1;exitDx=0;exitDy=0;entryX=0.5;entryY=0;entryDx=0;entryDy=0;labelBackgroundColor=default;strokeColor=default;align=center;verticalAlign=middle;fontFamily=Times New Roman;fontSize=14;fontColor=default;endArrow=classic;" edge="1" parent="1" source="uFLqNF3YbA82gDsRBkXz-51" target="uFLqNF3YbA82gDsRBkXz-40">
          <mxGeometry relative="1" as="geometry" />
        </mxCell>
        <mxCell id="uFLqNF3YbA82gDsRBkXz-51" value="$$v_{a_{4}}$$" style="ellipse;whiteSpace=wrap;html=1;aspect=fixed;fontFamily=Times New Roman;fontSize=14;fontColor=default;" vertex="1" parent="1">
          <mxGeometry x="553.6027397260274" y="290" width="28" height="28" as="geometry" />
        </mxCell>
        <mxCell id="uFLqNF3YbA82gDsRBkXz-52" style="edgeStyle=none;shape=connector;rounded=0;orthogonalLoop=1;jettySize=auto;html=1;exitX=0.5;exitY=1;exitDx=0;exitDy=0;entryX=0.5;entryY=0;entryDx=0;entryDy=0;labelBackgroundColor=default;strokeColor=default;align=center;verticalAlign=middle;fontFamily=Times New Roman;fontSize=14;fontColor=default;endArrow=classic;" edge="1" parent="1" source="uFLqNF3YbA82gDsRBkXz-55" target="uFLqNF3YbA82gDsRBkXz-41">
          <mxGeometry relative="1" as="geometry" />
        </mxCell>
        <mxCell id="uFLqNF3YbA82gDsRBkXz-53" style="edgeStyle=none;shape=connector;rounded=0;orthogonalLoop=1;jettySize=auto;html=1;exitX=0.5;exitY=1;exitDx=0;exitDy=0;entryX=0.5;entryY=0;entryDx=0;entryDy=0;labelBackgroundColor=default;strokeColor=default;align=center;verticalAlign=middle;fontFamily=Times New Roman;fontSize=14;fontColor=default;endArrow=classic;" edge="1" parent="1" source="uFLqNF3YbA82gDsRBkXz-55" target="uFLqNF3YbA82gDsRBkXz-42">
          <mxGeometry relative="1" as="geometry" />
        </mxCell>
        <mxCell id="uFLqNF3YbA82gDsRBkXz-54" style="edgeStyle=none;shape=connector;rounded=0;orthogonalLoop=1;jettySize=auto;html=1;exitX=0.5;exitY=1;exitDx=0;exitDy=0;entryX=0.5;entryY=0;entryDx=0;entryDy=0;labelBackgroundColor=default;strokeColor=default;align=center;verticalAlign=middle;fontFamily=Times New Roman;fontSize=14;fontColor=default;endArrow=classic;" edge="1" parent="1" source="uFLqNF3YbA82gDsRBkXz-55" target="uFLqNF3YbA82gDsRBkXz-43">
          <mxGeometry relative="1" as="geometry" />
        </mxCell>
        <mxCell id="uFLqNF3YbA82gDsRBkXz-55" value="$$v_{a_{1003}}$$" style="ellipse;whiteSpace=wrap;html=1;aspect=fixed;fontFamily=Times New Roman;fontSize=14;fontColor=default;" vertex="1" parent="1">
          <mxGeometry x="695.3835616438356" y="290" width="28" height="28" as="geometry" />
        </mxCell>
        <mxCell id="uFLqNF3YbA82gDsRBkXz-56" value="......" style="text;html=1;strokeColor=none;fillColor=none;align=center;verticalAlign=middle;whiteSpace=wrap;rounded=0;fontSize=14;fontFamily=Times New Roman;fontColor=default;" vertex="1" parent="1">
          <mxGeometry x="618.2849315068494" y="290" width="56.71232876712329" height="28" as="geometry" />
        </mxCell>
        <mxCell id="uFLqNF3YbA82gDsRBkXz-57" value="" style="verticalLabelPosition=bottom;verticalAlign=top;html=1;shape=mxgraph.basic.tick;fontFamily=Times New Roman;fontSize=14;fontColor=#000000;fillColor=#ff0000;" vertex="1" parent="1">
          <mxGeometry x="85" y="420" width="20" height="30" as="geometry" />
        </mxCell>
        <mxCell id="uFLqNF3YbA82gDsRBkXz-82" value="$$den(g_3)=238$$" style="text;html=1;strokeColor=none;fillColor=none;align=center;verticalAlign=middle;whiteSpace=wrap;rounded=0;fontSize=16;fontFamily=Times New Roman;fontColor=default;" vertex="1" parent="1">
          <mxGeometry x="209.51999999999998" y="190" width="90" height="40" as="geometry" />
        </mxCell>
        <mxCell id="uFLqNF3YbA82gDsRBkXz-83" value="60" style="text;html=1;strokeColor=none;fillColor=none;align=center;verticalAlign=middle;whiteSpace=wrap;rounded=0;fontFamily=Times New Roman;fontSize=14;" vertex="1" parent="1">
          <mxGeometry x="365" y="200" width="60" height="30" as="geometry" />
        </mxCell>
        <mxCell id="uFLqNF3YbA82gDsRBkXz-84" value="180" style="text;html=1;strokeColor=none;fillColor=none;align=center;verticalAlign=middle;whiteSpace=wrap;rounded=0;fontFamily=Times New Roman;fontSize=14;" vertex="1" parent="1">
          <mxGeometry x="81" y="290" width="60" height="30" as="geometry" />
        </mxCell>
        <mxCell id="uFLqNF3YbA82gDsRBkXz-85" value="139" style="text;html=1;strokeColor=none;fillColor=none;align=center;verticalAlign=middle;whiteSpace=wrap;rounded=0;fontFamily=Times New Roman;fontSize=14;" vertex="1" parent="1">
          <mxGeometry x="222.78" y="290" width="60" height="30" as="geometry" />
        </mxCell>
        <mxCell id="uFLqNF3YbA82gDsRBkXz-86" value="113" style="text;html=1;strokeColor=none;fillColor=none;align=center;verticalAlign=middle;whiteSpace=wrap;rounded=0;fontFamily=Times New Roman;fontSize=14;" vertex="1" parent="1">
          <mxGeometry x="364.56" y="290" width="60" height="30" as="geometry" />
        </mxCell>
        <mxCell id="uFLqNF3YbA82gDsRBkXz-87" value="62" style="text;html=1;strokeColor=none;fillColor=none;align=center;verticalAlign=middle;whiteSpace=wrap;rounded=0;fontFamily=Times New Roman;fontSize=14;" vertex="1" parent="1">
          <mxGeometry x="508.34000000000003" y="289" width="60" height="30" as="geometry" />
        </mxCell>
        <mxCell id="uFLqNF3YbA82gDsRBkXz-88" value="62" style="text;html=1;strokeColor=none;fillColor=none;align=center;verticalAlign=middle;whiteSpace=wrap;rounded=0;fontFamily=Times New Roman;fontSize=14;" vertex="1" parent="1">
          <mxGeometry x="650.12" y="290" width="60" height="30" as="geometry" />
        </mxCell>
        <mxCell id="uFLqNF3YbA82gDsRBkXz-92" value="" style="verticalLabelPosition=bottom;verticalAlign=top;html=1;shape=mxgraph.basic.x;fontFamily=Times New Roman;fontSize=14;fontColor=default;fillColor=#000000;" vertex="1" parent="1">
          <mxGeometry x="226.78" y="420" width="20" height="30" as="geometry" />
        </mxCell>
        <mxCell id="uFLqNF3YbA82gDsRBkXz-93" value="" style="verticalLabelPosition=bottom;verticalAlign=top;html=1;shape=mxgraph.basic.x;fontFamily=Times New Roman;fontSize=14;fontColor=default;fillColor=#000000;" vertex="1" parent="1">
          <mxGeometry x="274.04" y="420" width="20" height="30" as="geometry" />
        </mxCell>
        <mxCell id="uFLqNF3YbA82gDsRBkXz-95" value="" style="verticalLabelPosition=bottom;verticalAlign=top;html=1;shape=mxgraph.basic.x;fontFamily=Times New Roman;fontSize=14;fontColor=default;fillColor=#000000;" vertex="1" parent="1">
          <mxGeometry x="321.3" y="420" width="20" height="30" as="geometry" />
        </mxCell>
        <mxCell id="uFLqNF3YbA82gDsRBkXz-96" value="" style="verticalLabelPosition=bottom;verticalAlign=top;html=1;shape=mxgraph.basic.x;fontFamily=Times New Roman;fontSize=14;fontColor=default;fillColor=#000000;" vertex="1" parent="1">
          <mxGeometry x="368.56" y="420" width="20" height="30" as="geometry" />
        </mxCell>
        <mxCell id="uFLqNF3YbA82gDsRBkXz-97" value="" style="verticalLabelPosition=bottom;verticalAlign=top;html=1;shape=mxgraph.basic.x;fontFamily=Times New Roman;fontSize=14;fontColor=default;fillColor=#000000;" vertex="1" parent="1">
          <mxGeometry x="415.82" y="420" width="20" height="30" as="geometry" />
        </mxCell>
        <mxCell id="uFLqNF3YbA82gDsRBkXz-98" value="" style="verticalLabelPosition=bottom;verticalAlign=top;html=1;shape=mxgraph.basic.x;fontFamily=Times New Roman;fontSize=14;fontColor=default;fillColor=#000000;" vertex="1" parent="1">
          <mxGeometry x="463.08" y="420" width="20" height="30" as="geometry" />
        </mxCell>
        <mxCell id="uFLqNF3YbA82gDsRBkXz-99" value="210" style="rounded=0;whiteSpace=wrap;html=1;fontSize=14;fontFamily=Times New Roman;" vertex="1" parent="1">
          <mxGeometry x="216.78" y="460" width="40" height="30" as="geometry" />
        </mxCell>
        <mxCell id="uFLqNF3YbA82gDsRBkXz-100" value="210" style="rounded=0;whiteSpace=wrap;html=1;fontSize=14;fontFamily=Times New Roman;" vertex="1" parent="1">
          <mxGeometry x="264.04" y="460" width="40" height="30" as="geometry" />
        </mxCell>
        <mxCell id="uFLqNF3YbA82gDsRBkXz-101" value="210" style="rounded=0;whiteSpace=wrap;html=1;fontSize=14;fontFamily=Times New Roman;" vertex="1" parent="1">
          <mxGeometry x="311.3" y="460" width="40" height="30" as="geometry" />
        </mxCell>
        <mxCell id="uFLqNF3YbA82gDsRBkXz-102" value="210" style="rounded=0;whiteSpace=wrap;html=1;fontSize=14;fontFamily=Times New Roman;" vertex="1" parent="1">
          <mxGeometry x="358.56" y="460" width="40" height="30" as="geometry" />
        </mxCell>
        <mxCell id="uFLqNF3YbA82gDsRBkXz-103" value="210" style="rounded=0;whiteSpace=wrap;html=1;fontSize=14;fontFamily=Times New Roman;" vertex="1" parent="1">
          <mxGeometry x="404" y="460" width="40" height="30" as="geometry" />
        </mxCell>
        <mxCell id="uFLqNF3YbA82gDsRBkXz-104" value="210" style="rounded=0;whiteSpace=wrap;html=1;fontSize=14;fontFamily=Times New Roman;" vertex="1" parent="1">
          <mxGeometry x="453.08" y="460" width="40" height="30" as="geometry" />
        </mxCell>
      </root>
    </mxGraphModel>
  </diagram>
</mxfile>
